<svg width="129" height="491" viewBox="0 0 129 491" fill="none" xmlns="http://www.w3.org/2000/svg">
<g clip-path="url(#clip0_87_14)" filter="url(#filter0_d_87_14)">
<rect x="13.5" y="18.5" width="102" height="53" rx="7.5" fill="#222222" stroke="#222222"/>
<path d="M46.5088 50V39.024H48.0288V48.672H53.4848V50H46.5088ZM56.9269 50.192C56.6176 50.192 56.3083 50.1547 55.9989 50.08C55.6896 50.0053 55.4016 49.8827 55.1349 49.712C54.8683 49.5413 54.6549 49.3067 54.4949 49.008C54.3349 48.6987 54.2549 48.3147 54.2549 47.856C54.2549 47.28 54.3936 46.8053 54.6709 46.432C54.9483 46.0587 55.3323 45.7707 55.8229 45.568C56.3243 45.3547 56.9163 45.2107 57.5989 45.136C58.2816 45.0507 59.0229 45.008 59.8229 45.008V44.048C59.8229 43.7387 59.7696 43.472 59.6629 43.248C59.5563 43.024 59.3643 42.8533 59.0869 42.736C58.8203 42.608 58.4363 42.544 57.9349 42.544C57.4549 42.544 57.0709 42.608 56.7829 42.736C56.5056 42.8533 56.3083 43.008 56.1909 43.2C56.0843 43.392 56.0309 43.6053 56.0309 43.84V44.08H54.6709C54.6603 44.0267 54.6549 43.9733 54.6549 43.92C54.6549 43.8667 54.6549 43.8027 54.6549 43.728C54.6549 43.216 54.7936 42.7893 55.0709 42.448C55.3589 42.096 55.7589 41.8347 56.2709 41.664C56.7829 41.4827 57.3696 41.392 58.0309 41.392C58.7349 41.392 59.3216 41.4933 59.7909 41.696C60.2709 41.8987 60.6283 42.1867 60.8629 42.56C61.1083 42.9333 61.2309 43.3813 61.2309 43.904V48.464C61.2309 48.6667 61.2789 48.8107 61.3749 48.896C61.4709 48.9707 61.5883 49.008 61.7269 49.008H62.3509V49.936C62.2016 50 62.0363 50.0533 61.8549 50.096C61.6736 50.1493 61.4656 50.176 61.2309 50.176C60.9536 50.176 60.7243 50.1173 60.5429 50C60.3616 49.8933 60.2229 49.744 60.1269 49.552C60.0309 49.3493 59.9669 49.1253 59.9349 48.88H59.8229C59.6309 49.1467 59.3856 49.3813 59.0869 49.584C58.7989 49.776 58.4736 49.9253 58.1109 50.032C57.7483 50.1387 57.3536 50.192 56.9269 50.192ZM57.2789 49.008C57.6203 49.008 57.9403 48.9547 58.2389 48.848C58.5483 48.7413 58.8203 48.592 59.0549 48.4C59.2896 48.1973 59.4763 47.9573 59.6149 47.68C59.7536 47.4027 59.8229 47.0987 59.8229 46.768V46.064C58.9589 46.064 58.2229 46.112 57.6149 46.208C57.0069 46.304 56.5376 46.4747 56.2069 46.72C55.8869 46.9653 55.7269 47.312 55.7269 47.76C55.7269 48.048 55.7909 48.2827 55.9189 48.464C56.0469 48.6453 56.2283 48.784 56.4629 48.88C56.6976 48.9653 56.9696 49.008 57.2789 49.008ZM67.5337 50.192C66.9684 50.192 66.4617 50.08 66.0137 49.856C65.5657 49.6213 65.1977 49.2693 64.9097 48.8H64.7977L64.6537 50H63.5337V38.432H64.9417V42.64H65.0377C65.2297 42.3413 65.4537 42.1013 65.7097 41.92C65.9657 41.7387 66.2537 41.6053 66.5737 41.52C66.8937 41.4347 67.235 41.392 67.5977 41.392C68.2484 41.392 68.819 41.5467 69.3097 41.856C69.8004 42.1653 70.179 42.64 70.4457 43.28C70.723 43.92 70.8617 44.736 70.8617 45.728C70.8617 46.7733 70.7284 47.6267 70.4617 48.288C70.195 48.9387 69.8164 49.4187 69.3257 49.728C68.835 50.0373 68.2377 50.192 67.5337 50.192ZM67.1977 48.96C67.6777 48.96 68.0777 48.864 68.3977 48.672C68.7284 48.48 68.979 48.1653 69.1497 47.728C69.3204 47.28 69.4057 46.6933 69.4057 45.968V45.632C69.4057 44.928 69.3257 44.3573 69.1657 43.92C69.0057 43.472 68.7604 43.1467 68.4297 42.944C68.099 42.7307 67.6724 42.624 67.1497 42.624C66.851 42.624 66.5684 42.672 66.3017 42.768C66.035 42.864 65.795 43.0293 65.5817 43.264C65.379 43.4987 65.219 43.8133 65.1017 44.208C64.995 44.6027 64.9417 45.088 64.9417 45.664V45.92C64.9417 46.5813 65.0164 47.136 65.1657 47.584C65.3257 48.032 65.571 48.3733 65.9017 48.608C66.243 48.8427 66.675 48.96 67.1977 48.96ZM75.9718 50.192C75.1398 50.192 74.4358 50.0373 73.8598 49.728C73.2945 49.408 72.8625 48.9227 72.5638 48.272C72.2758 47.6213 72.1318 46.7947 72.1318 45.792C72.1318 44.7787 72.2758 43.952 72.5638 43.312C72.8625 42.6613 73.2998 42.1813 73.8758 41.872C74.4518 41.552 75.1718 41.392 76.0358 41.392C76.8251 41.392 77.4865 41.5467 78.0198 41.856C78.5531 42.1547 78.9531 42.608 79.2198 43.216C79.4971 43.8133 79.6358 44.5653 79.6358 45.472V46.144H73.5878C73.6091 46.816 73.7051 47.3707 73.8758 47.808C74.0571 48.2347 74.3238 48.5493 74.6758 48.752C75.0278 48.944 75.4705 49.04 76.0038 49.04C76.3665 49.04 76.6811 48.9973 76.9478 48.912C77.2251 48.816 77.4545 48.6827 77.6358 48.512C77.8278 48.3413 77.9718 48.1387 78.0678 47.904C78.1638 47.6693 78.2171 47.4133 78.2278 47.136H79.6038C79.5931 47.584 79.5078 48 79.3478 48.384C79.1878 48.7573 78.9531 49.0773 78.6438 49.344C78.3345 49.6107 77.9558 49.8187 77.5078 49.968C77.0598 50.1173 76.5478 50.192 75.9718 50.192ZM73.6198 45.088H78.1798C78.1798 44.6187 78.1265 44.224 78.0198 43.904C77.9131 43.584 77.7585 43.3227 77.5558 43.12C77.3638 42.9173 77.1345 42.7733 76.8678 42.688C76.6118 42.592 76.3185 42.544 75.9878 42.544C75.4971 42.544 75.0811 42.6347 74.7398 42.816C74.3985 42.9973 74.1371 43.2747 73.9558 43.648C73.7745 44.0213 73.6625 44.5013 73.6198 45.088ZM81.3774 50V38.432H82.7854V50H81.3774Z" fill="white"/>
</g>
<g clip-path="url(#clip1_87_14)" filter="url(#filter1_d_87_14)">
<rect x="14" y="86" width="101" height="52" rx="7" fill="#222222" stroke="#5C5C5D" stroke-width="2"/>
<path d="M46.5088 117V106.024H48.0288V115.672H53.4848V117H46.5088ZM56.9269 117.192C56.6176 117.192 56.3083 117.155 55.9989 117.08C55.6896 117.005 55.4016 116.883 55.1349 116.712C54.8683 116.541 54.6549 116.307 54.4949 116.008C54.3349 115.699 54.2549 115.315 54.2549 114.856C54.2549 114.28 54.3936 113.805 54.6709 113.432C54.9483 113.059 55.3323 112.771 55.8229 112.568C56.3243 112.355 56.9163 112.211 57.5989 112.136C58.2816 112.051 59.0229 112.008 59.8229 112.008V111.048C59.8229 110.739 59.7696 110.472 59.6629 110.248C59.5563 110.024 59.3643 109.853 59.0869 109.736C58.8203 109.608 58.4363 109.544 57.9349 109.544C57.4549 109.544 57.0709 109.608 56.7829 109.736C56.5056 109.853 56.3083 110.008 56.1909 110.2C56.0843 110.392 56.0309 110.605 56.0309 110.84V111.08H54.6709C54.6603 111.027 54.6549 110.973 54.6549 110.92C54.6549 110.867 54.6549 110.803 54.6549 110.728C54.6549 110.216 54.7936 109.789 55.0709 109.448C55.3589 109.096 55.7589 108.835 56.2709 108.664C56.7829 108.483 57.3696 108.392 58.0309 108.392C58.7349 108.392 59.3216 108.493 59.7909 108.696C60.2709 108.899 60.6283 109.187 60.8629 109.56C61.1083 109.933 61.2309 110.381 61.2309 110.904V115.464C61.2309 115.667 61.2789 115.811 61.3749 115.896C61.4709 115.971 61.5883 116.008 61.7269 116.008H62.3509V116.936C62.2016 117 62.0363 117.053 61.8549 117.096C61.6736 117.149 61.4656 117.176 61.2309 117.176C60.9536 117.176 60.7243 117.117 60.5429 117C60.3616 116.893 60.2229 116.744 60.1269 116.552C60.0309 116.349 59.9669 116.125 59.9349 115.88H59.8229C59.6309 116.147 59.3856 116.381 59.0869 116.584C58.7989 116.776 58.4736 116.925 58.1109 117.032C57.7483 117.139 57.3536 117.192 56.9269 117.192ZM57.2789 116.008C57.6203 116.008 57.9403 115.955 58.2389 115.848C58.5483 115.741 58.8203 115.592 59.0549 115.4C59.2896 115.197 59.4763 114.957 59.6149 114.68C59.7536 114.403 59.8229 114.099 59.8229 113.768V113.064C58.9589 113.064 58.2229 113.112 57.6149 113.208C57.0069 113.304 56.5376 113.475 56.2069 113.72C55.8869 113.965 55.7269 114.312 55.7269 114.76C55.7269 115.048 55.7909 115.283 55.9189 115.464C56.0469 115.645 56.2283 115.784 56.4629 115.88C56.6976 115.965 56.9696 116.008 57.2789 116.008ZM67.5337 117.192C66.9684 117.192 66.4617 117.08 66.0137 116.856C65.5657 116.621 65.1977 116.269 64.9097 115.8H64.7977L64.6537 117H63.5337V105.432H64.9417V109.64H65.0377C65.2297 109.341 65.4537 109.101 65.7097 108.92C65.9657 108.739 66.2537 108.605 66.5737 108.52C66.8937 108.435 67.235 108.392 67.5977 108.392C68.2484 108.392 68.819 108.547 69.3097 108.856C69.8004 109.165 70.179 109.64 70.4457 110.28C70.723 110.92 70.8617 111.736 70.8617 112.728C70.8617 113.773 70.7284 114.627 70.4617 115.288C70.195 115.939 69.8164 116.419 69.3257 116.728C68.835 117.037 68.2377 117.192 67.5337 117.192ZM67.1977 115.96C67.6777 115.96 68.0777 115.864 68.3977 115.672C68.7284 115.48 68.979 115.165 69.1497 114.728C69.3204 114.28 69.4057 113.693 69.4057 112.968V112.632C69.4057 111.928 69.3257 111.357 69.1657 110.92C69.0057 110.472 68.7604 110.147 68.4297 109.944C68.099 109.731 67.6724 109.624 67.1497 109.624C66.851 109.624 66.5684 109.672 66.3017 109.768C66.035 109.864 65.795 110.029 65.5817 110.264C65.379 110.499 65.219 110.813 65.1017 111.208C64.995 111.603 64.9417 112.088 64.9417 112.664V112.92C64.9417 113.581 65.0164 114.136 65.1657 114.584C65.3257 115.032 65.571 115.373 65.9017 115.608C66.243 115.843 66.675 115.96 67.1977 115.96ZM75.9718 117.192C75.1398 117.192 74.4358 117.037 73.8598 116.728C73.2945 116.408 72.8625 115.923 72.5638 115.272C72.2758 114.621 72.1318 113.795 72.1318 112.792C72.1318 111.779 72.2758 110.952 72.5638 110.312C72.8625 109.661 73.2998 109.181 73.8758 108.872C74.4518 108.552 75.1718 108.392 76.0358 108.392C76.8251 108.392 77.4865 108.547 78.0198 108.856C78.5531 109.155 78.9531 109.608 79.2198 110.216C79.4971 110.813 79.6358 111.565 79.6358 112.472V113.144H73.5878C73.6091 113.816 73.7051 114.371 73.8758 114.808C74.0571 115.235 74.3238 115.549 74.6758 115.752C75.0278 115.944 75.4705 116.04 76.0038 116.04C76.3665 116.04 76.6811 115.997 76.9478 115.912C77.2251 115.816 77.4545 115.683 77.6358 115.512C77.8278 115.341 77.9718 115.139 78.0678 114.904C78.1638 114.669 78.2171 114.413 78.2278 114.136H79.6038C79.5931 114.584 79.5078 115 79.3478 115.384C79.1878 115.757 78.9531 116.077 78.6438 116.344C78.3345 116.611 77.9558 116.819 77.5078 116.968C77.0598 117.117 76.5478 117.192 75.9718 117.192ZM73.6198 112.088H78.1798C78.1798 111.619 78.1265 111.224 78.0198 110.904C77.9131 110.584 77.7585 110.323 77.5558 110.12C77.3638 109.917 77.1345 109.773 76.8678 109.688C76.6118 109.592 76.3185 109.544 75.9878 109.544C75.4971 109.544 75.0811 109.635 74.7398 109.816C74.3985 109.997 74.1371 110.275 73.9558 110.648C73.7745 111.021 73.6625 111.501 73.6198 112.088ZM81.3774 117V105.432H82.7854V117H81.3774Z" fill="white"/>
</g>
<g clip-path="url(#clip2_87_14)" filter="url(#filter2_d_87_14)">
<rect x="13.5" y="152.5" width="102" height="53" rx="7.5" fill="white" stroke="white"/>
<path d="M46.5088 184V173.024H48.0288V182.672H53.4848V184H46.5088ZM56.9269 184.192C56.6176 184.192 56.3083 184.155 55.9989 184.08C55.6896 184.005 55.4016 183.883 55.1349 183.712C54.8683 183.541 54.6549 183.307 54.4949 183.008C54.3349 182.699 54.2549 182.315 54.2549 181.856C54.2549 181.28 54.3936 180.805 54.6709 180.432C54.9483 180.059 55.3323 179.771 55.8229 179.568C56.3243 179.355 56.9163 179.211 57.5989 179.136C58.2816 179.051 59.0229 179.008 59.8229 179.008V178.048C59.8229 177.739 59.7696 177.472 59.6629 177.248C59.5563 177.024 59.3643 176.853 59.0869 176.736C58.8203 176.608 58.4363 176.544 57.9349 176.544C57.4549 176.544 57.0709 176.608 56.7829 176.736C56.5056 176.853 56.3083 177.008 56.1909 177.2C56.0843 177.392 56.0309 177.605 56.0309 177.84V178.08H54.6709C54.6603 178.027 54.6549 177.973 54.6549 177.92C54.6549 177.867 54.6549 177.803 54.6549 177.728C54.6549 177.216 54.7936 176.789 55.0709 176.448C55.3589 176.096 55.7589 175.835 56.2709 175.664C56.7829 175.483 57.3696 175.392 58.0309 175.392C58.7349 175.392 59.3216 175.493 59.7909 175.696C60.2709 175.899 60.6283 176.187 60.8629 176.56C61.1083 176.933 61.2309 177.381 61.2309 177.904V182.464C61.2309 182.667 61.2789 182.811 61.3749 182.896C61.4709 182.971 61.5883 183.008 61.7269 183.008H62.3509V183.936C62.2016 184 62.0363 184.053 61.8549 184.096C61.6736 184.149 61.4656 184.176 61.2309 184.176C60.9536 184.176 60.7243 184.117 60.5429 184C60.3616 183.893 60.2229 183.744 60.1269 183.552C60.0309 183.349 59.9669 183.125 59.9349 182.88H59.8229C59.6309 183.147 59.3856 183.381 59.0869 183.584C58.7989 183.776 58.4736 183.925 58.1109 184.032C57.7483 184.139 57.3536 184.192 56.9269 184.192ZM57.2789 183.008C57.6203 183.008 57.9403 182.955 58.2389 182.848C58.5483 182.741 58.8203 182.592 59.0549 182.4C59.2896 182.197 59.4763 181.957 59.6149 181.68C59.7536 181.403 59.8229 181.099 59.8229 180.768V180.064C58.9589 180.064 58.2229 180.112 57.6149 180.208C57.0069 180.304 56.5376 180.475 56.2069 180.72C55.8869 180.965 55.7269 181.312 55.7269 181.76C55.7269 182.048 55.7909 182.283 55.9189 182.464C56.0469 182.645 56.2283 182.784 56.4629 182.88C56.6976 182.965 56.9696 183.008 57.2789 183.008ZM67.5337 184.192C66.9684 184.192 66.4617 184.08 66.0137 183.856C65.5657 183.621 65.1977 183.269 64.9097 182.8H64.7977L64.6537 184H63.5337V172.432H64.9417V176.64H65.0377C65.2297 176.341 65.4537 176.101 65.7097 175.92C65.9657 175.739 66.2537 175.605 66.5737 175.52C66.8937 175.435 67.235 175.392 67.5977 175.392C68.2484 175.392 68.819 175.547 69.3097 175.856C69.8004 176.165 70.179 176.64 70.4457 177.28C70.723 177.92 70.8617 178.736 70.8617 179.728C70.8617 180.773 70.7284 181.627 70.4617 182.288C70.195 182.939 69.8164 183.419 69.3257 183.728C68.835 184.037 68.2377 184.192 67.5337 184.192ZM67.1977 182.96C67.6777 182.96 68.0777 182.864 68.3977 182.672C68.7284 182.48 68.979 182.165 69.1497 181.728C69.3204 181.28 69.4057 180.693 69.4057 179.968V179.632C69.4057 178.928 69.3257 178.357 69.1657 177.92C69.0057 177.472 68.7604 177.147 68.4297 176.944C68.099 176.731 67.6724 176.624 67.1497 176.624C66.851 176.624 66.5684 176.672 66.3017 176.768C66.035 176.864 65.795 177.029 65.5817 177.264C65.379 177.499 65.219 177.813 65.1017 178.208C64.995 178.603 64.9417 179.088 64.9417 179.664V179.92C64.9417 180.581 65.0164 181.136 65.1657 181.584C65.3257 182.032 65.571 182.373 65.9017 182.608C66.243 182.843 66.675 182.96 67.1977 182.96ZM75.9718 184.192C75.1398 184.192 74.4358 184.037 73.8598 183.728C73.2945 183.408 72.8625 182.923 72.5638 182.272C72.2758 181.621 72.1318 180.795 72.1318 179.792C72.1318 178.779 72.2758 177.952 72.5638 177.312C72.8625 176.661 73.2998 176.181 73.8758 175.872C74.4518 175.552 75.1718 175.392 76.0358 175.392C76.8251 175.392 77.4865 175.547 78.0198 175.856C78.5531 176.155 78.9531 176.608 79.2198 177.216C79.4971 177.813 79.6358 178.565 79.6358 179.472V180.144H73.5878C73.6091 180.816 73.7051 181.371 73.8758 181.808C74.0571 182.235 74.3238 182.549 74.6758 182.752C75.0278 182.944 75.4705 183.04 76.0038 183.04C76.3665 183.04 76.6811 182.997 76.9478 182.912C77.2251 182.816 77.4545 182.683 77.6358 182.512C77.8278 182.341 77.9718 182.139 78.0678 181.904C78.1638 181.669 78.2171 181.413 78.2278 181.136H79.6038C79.5931 181.584 79.5078 182 79.3478 182.384C79.1878 182.757 78.9531 183.077 78.6438 183.344C78.3345 183.611 77.9558 183.819 77.5078 183.968C77.0598 184.117 76.5478 184.192 75.9718 184.192ZM73.6198 179.088H78.1798C78.1798 178.619 78.1265 178.224 78.0198 177.904C77.9131 177.584 77.7585 177.323 77.5558 177.12C77.3638 176.917 77.1345 176.773 76.8678 176.688C76.6118 176.592 76.3185 176.544 75.9878 176.544C75.4971 176.544 75.0811 176.635 74.7398 176.816C74.3985 176.997 74.1371 177.275 73.9558 177.648C73.7745 178.021 73.6625 178.501 73.6198 179.088ZM81.3774 184V172.432H82.7854V184H81.3774Z" fill="black"/>
</g>
<g clip-path="url(#clip3_87_14)" filter="url(#filter3_d_87_14)">
<rect x="13.5" y="219.5" width="102" height="53" rx="7.5" fill="#5C5C5D" stroke="#5C5C5D"/>
<path d="M46.5088 251V240.024H48.0288V249.672H53.4848V251H46.5088ZM56.9269 251.192C56.6176 251.192 56.3083 251.155 55.9989 251.08C55.6896 251.005 55.4016 250.883 55.1349 250.712C54.8683 250.541 54.6549 250.307 54.4949 250.008C54.3349 249.699 54.2549 249.315 54.2549 248.856C54.2549 248.28 54.3936 247.805 54.6709 247.432C54.9483 247.059 55.3323 246.771 55.8229 246.568C56.3243 246.355 56.9163 246.211 57.5989 246.136C58.2816 246.051 59.0229 246.008 59.8229 246.008V245.048C59.8229 244.739 59.7696 244.472 59.6629 244.248C59.5563 244.024 59.3643 243.853 59.0869 243.736C58.8203 243.608 58.4363 243.544 57.9349 243.544C57.4549 243.544 57.0709 243.608 56.7829 243.736C56.5056 243.853 56.3083 244.008 56.1909 244.2C56.0843 244.392 56.0309 244.605 56.0309 244.84V245.08H54.6709C54.6603 245.027 54.6549 244.973 54.6549 244.92C54.6549 244.867 54.6549 244.803 54.6549 244.728C54.6549 244.216 54.7936 243.789 55.0709 243.448C55.3589 243.096 55.7589 242.835 56.2709 242.664C56.7829 242.483 57.3696 242.392 58.0309 242.392C58.7349 242.392 59.3216 242.493 59.7909 242.696C60.2709 242.899 60.6283 243.187 60.8629 243.56C61.1083 243.933 61.2309 244.381 61.2309 244.904V249.464C61.2309 249.667 61.2789 249.811 61.3749 249.896C61.4709 249.971 61.5883 250.008 61.7269 250.008H62.3509V250.936C62.2016 251 62.0363 251.053 61.8549 251.096C61.6736 251.149 61.4656 251.176 61.2309 251.176C60.9536 251.176 60.7243 251.117 60.5429 251C60.3616 250.893 60.2229 250.744 60.1269 250.552C60.0309 250.349 59.9669 250.125 59.9349 249.88H59.8229C59.6309 250.147 59.3856 250.381 59.0869 250.584C58.7989 250.776 58.4736 250.925 58.1109 251.032C57.7483 251.139 57.3536 251.192 56.9269 251.192ZM57.2789 250.008C57.6203 250.008 57.9403 249.955 58.2389 249.848C58.5483 249.741 58.8203 249.592 59.0549 249.4C59.2896 249.197 59.4763 248.957 59.6149 248.68C59.7536 248.403 59.8229 248.099 59.8229 247.768V247.064C58.9589 247.064 58.2229 247.112 57.6149 247.208C57.0069 247.304 56.5376 247.475 56.2069 247.72C55.8869 247.965 55.7269 248.312 55.7269 248.76C55.7269 249.048 55.7909 249.283 55.9189 249.464C56.0469 249.645 56.2283 249.784 56.4629 249.88C56.6976 249.965 56.9696 250.008 57.2789 250.008ZM67.5337 251.192C66.9684 251.192 66.4617 251.08 66.0137 250.856C65.5657 250.621 65.1977 250.269 64.9097 249.8H64.7977L64.6537 251H63.5337V239.432H64.9417V243.64H65.0377C65.2297 243.341 65.4537 243.101 65.7097 242.92C65.9657 242.739 66.2537 242.605 66.5737 242.52C66.8937 242.435 67.235 242.392 67.5977 242.392C68.2484 242.392 68.819 242.547 69.3097 242.856C69.8004 243.165 70.179 243.64 70.4457 244.28C70.723 244.92 70.8617 245.736 70.8617 246.728C70.8617 247.773 70.7284 248.627 70.4617 249.288C70.195 249.939 69.8164 250.419 69.3257 250.728C68.835 251.037 68.2377 251.192 67.5337 251.192ZM67.1977 249.96C67.6777 249.96 68.0777 249.864 68.3977 249.672C68.7284 249.48 68.979 249.165 69.1497 248.728C69.3204 248.28 69.4057 247.693 69.4057 246.968V246.632C69.4057 245.928 69.3257 245.357 69.1657 244.92C69.0057 244.472 68.7604 244.147 68.4297 243.944C68.099 243.731 67.6724 243.624 67.1497 243.624C66.851 243.624 66.5684 243.672 66.3017 243.768C66.035 243.864 65.795 244.029 65.5817 244.264C65.379 244.499 65.219 244.813 65.1017 245.208C64.995 245.603 64.9417 246.088 64.9417 246.664V246.92C64.9417 247.581 65.0164 248.136 65.1657 248.584C65.3257 249.032 65.571 249.373 65.9017 249.608C66.243 249.843 66.675 249.96 67.1977 249.96ZM75.9718 251.192C75.1398 251.192 74.4358 251.037 73.8598 250.728C73.2945 250.408 72.8625 249.923 72.5638 249.272C72.2758 248.621 72.1318 247.795 72.1318 246.792C72.1318 245.779 72.2758 244.952 72.5638 244.312C72.8625 243.661 73.2998 243.181 73.8758 242.872C74.4518 242.552 75.1718 242.392 76.0358 242.392C76.8251 242.392 77.4865 242.547 78.0198 242.856C78.5531 243.155 78.9531 243.608 79.2198 244.216C79.4971 244.813 79.6358 245.565 79.6358 246.472V247.144H73.5878C73.6091 247.816 73.7051 248.371 73.8758 248.808C74.0571 249.235 74.3238 249.549 74.6758 249.752C75.0278 249.944 75.4705 250.04 76.0038 250.04C76.3665 250.04 76.6811 249.997 76.9478 249.912C77.2251 249.816 77.4545 249.683 77.6358 249.512C77.8278 249.341 77.9718 249.139 78.0678 248.904C78.1638 248.669 78.2171 248.413 78.2278 248.136H79.6038C79.5931 248.584 79.5078 249 79.3478 249.384C79.1878 249.757 78.9531 250.077 78.6438 250.344C78.3345 250.611 77.9558 250.819 77.5078 250.968C77.0598 251.117 76.5478 251.192 75.9718 251.192ZM73.6198 246.088H78.1798C78.1798 245.619 78.1265 245.224 78.0198 244.904C77.9131 244.584 77.7585 244.323 77.5558 244.12C77.3638 243.917 77.1345 243.773 76.8678 243.688C76.6118 243.592 76.3185 243.544 75.9878 243.544C75.4971 243.544 75.0811 243.635 74.7398 243.816C74.3985 243.997 74.1371 244.275 73.9558 244.648C73.7745 245.021 73.6625 245.501 73.6198 246.088ZM81.3774 251V239.432H82.7854V251H81.3774Z" fill="white"/>
</g>
<g clip-path="url(#clip4_87_14)" filter="url(#filter4_d_87_14)">
<rect x="13.5" y="286.5" width="102" height="53" rx="7.5" fill="#B8B8B9" stroke="#B8B8B9"/>
<path d="M46.5088 318V307.024H48.0288V316.672H53.4848V318H46.5088ZM56.9269 318.192C56.6176 318.192 56.3083 318.155 55.9989 318.08C55.6896 318.005 55.4016 317.883 55.1349 317.712C54.8683 317.541 54.6549 317.307 54.4949 317.008C54.3349 316.699 54.2549 316.315 54.2549 315.856C54.2549 315.28 54.3936 314.805 54.6709 314.432C54.9483 314.059 55.3323 313.771 55.8229 313.568C56.3243 313.355 56.9163 313.211 57.5989 313.136C58.2816 313.051 59.0229 313.008 59.8229 313.008V312.048C59.8229 311.739 59.7696 311.472 59.6629 311.248C59.5563 311.024 59.3643 310.853 59.0869 310.736C58.8203 310.608 58.4363 310.544 57.9349 310.544C57.4549 310.544 57.0709 310.608 56.7829 310.736C56.5056 310.853 56.3083 311.008 56.1909 311.2C56.0843 311.392 56.0309 311.605 56.0309 311.84V312.08H54.6709C54.6603 312.027 54.6549 311.973 54.6549 311.92C54.6549 311.867 54.6549 311.803 54.6549 311.728C54.6549 311.216 54.7936 310.789 55.0709 310.448C55.3589 310.096 55.7589 309.835 56.2709 309.664C56.7829 309.483 57.3696 309.392 58.0309 309.392C58.7349 309.392 59.3216 309.493 59.7909 309.696C60.2709 309.899 60.6283 310.187 60.8629 310.56C61.1083 310.933 61.2309 311.381 61.2309 311.904V316.464C61.2309 316.667 61.2789 316.811 61.3749 316.896C61.4709 316.971 61.5883 317.008 61.7269 317.008H62.3509V317.936C62.2016 318 62.0363 318.053 61.8549 318.096C61.6736 318.149 61.4656 318.176 61.2309 318.176C60.9536 318.176 60.7243 318.117 60.5429 318C60.3616 317.893 60.2229 317.744 60.1269 317.552C60.0309 317.349 59.9669 317.125 59.9349 316.88H59.8229C59.6309 317.147 59.3856 317.381 59.0869 317.584C58.7989 317.776 58.4736 317.925 58.1109 318.032C57.7483 318.139 57.3536 318.192 56.9269 318.192ZM57.2789 317.008C57.6203 317.008 57.9403 316.955 58.2389 316.848C58.5483 316.741 58.8203 316.592 59.0549 316.4C59.2896 316.197 59.4763 315.957 59.6149 315.68C59.7536 315.403 59.8229 315.099 59.8229 314.768V314.064C58.9589 314.064 58.2229 314.112 57.6149 314.208C57.0069 314.304 56.5376 314.475 56.2069 314.72C55.8869 314.965 55.7269 315.312 55.7269 315.76C55.7269 316.048 55.7909 316.283 55.9189 316.464C56.0469 316.645 56.2283 316.784 56.4629 316.88C56.6976 316.965 56.9696 317.008 57.2789 317.008ZM67.5337 318.192C66.9684 318.192 66.4617 318.08 66.0137 317.856C65.5657 317.621 65.1977 317.269 64.9097 316.8H64.7977L64.6537 318H63.5337V306.432H64.9417V310.64H65.0377C65.2297 310.341 65.4537 310.101 65.7097 309.92C65.9657 309.739 66.2537 309.605 66.5737 309.52C66.8937 309.435 67.235 309.392 67.5977 309.392C68.2484 309.392 68.819 309.547 69.3097 309.856C69.8004 310.165 70.179 310.64 70.4457 311.28C70.723 311.92 70.8617 312.736 70.8617 313.728C70.8617 314.773 70.7284 315.627 70.4617 316.288C70.195 316.939 69.8164 317.419 69.3257 317.728C68.835 318.037 68.2377 318.192 67.5337 318.192ZM67.1977 316.96C67.6777 316.96 68.0777 316.864 68.3977 316.672C68.7284 316.48 68.979 316.165 69.1497 315.728C69.3204 315.28 69.4057 314.693 69.4057 313.968V313.632C69.4057 312.928 69.3257 312.357 69.1657 311.92C69.0057 311.472 68.7604 311.147 68.4297 310.944C68.099 310.731 67.6724 310.624 67.1497 310.624C66.851 310.624 66.5684 310.672 66.3017 310.768C66.035 310.864 65.795 311.029 65.5817 311.264C65.379 311.499 65.219 311.813 65.1017 312.208C64.995 312.603 64.9417 313.088 64.9417 313.664V313.92C64.9417 314.581 65.0164 315.136 65.1657 315.584C65.3257 316.032 65.571 316.373 65.9017 316.608C66.243 316.843 66.675 316.96 67.1977 316.96ZM75.9718 318.192C75.1398 318.192 74.4358 318.037 73.8598 317.728C73.2945 317.408 72.8625 316.923 72.5638 316.272C72.2758 315.621 72.1318 314.795 72.1318 313.792C72.1318 312.779 72.2758 311.952 72.5638 311.312C72.8625 310.661 73.2998 310.181 73.8758 309.872C74.4518 309.552 75.1718 309.392 76.0358 309.392C76.8251 309.392 77.4865 309.547 78.0198 309.856C78.5531 310.155 78.9531 310.608 79.2198 311.216C79.4971 311.813 79.6358 312.565 79.6358 313.472V314.144H73.5878C73.6091 314.816 73.7051 315.371 73.8758 315.808C74.0571 316.235 74.3238 316.549 74.6758 316.752C75.0278 316.944 75.4705 317.04 76.0038 317.04C76.3665 317.04 76.6811 316.997 76.9478 316.912C77.2251 316.816 77.4545 316.683 77.6358 316.512C77.8278 316.341 77.9718 316.139 78.0678 315.904C78.1638 315.669 78.2171 315.413 78.2278 315.136H79.6038C79.5931 315.584 79.5078 316 79.3478 316.384C79.1878 316.757 78.9531 317.077 78.6438 317.344C78.3345 317.611 77.9558 317.819 77.5078 317.968C77.0598 318.117 76.5478 318.192 75.9718 318.192ZM73.6198 313.088H78.1798C78.1798 312.619 78.1265 312.224 78.0198 311.904C77.9131 311.584 77.7585 311.323 77.5558 311.12C77.3638 310.917 77.1345 310.773 76.8678 310.688C76.6118 310.592 76.3185 310.544 75.9878 310.544C75.4971 310.544 75.0811 310.635 74.7398 310.816C74.3985 310.997 74.1371 311.275 73.9558 311.648C73.7745 312.021 73.6625 312.501 73.6198 313.088ZM81.3774 318V306.432H82.7854V318H81.3774Z" fill="white"/>
</g>
<g clip-path="url(#clip5_87_14)" filter="url(#filter5_d_87_14)">
<rect x="13.5" y="353.5" width="102" height="53" rx="7.5" fill="white" stroke="white"/>
<path d="M46.5088 385V374.024H48.0288V383.672H53.4848V385H46.5088ZM56.9269 385.192C56.6176 385.192 56.3083 385.155 55.9989 385.08C55.6896 385.005 55.4016 384.883 55.1349 384.712C54.8683 384.541 54.6549 384.307 54.4949 384.008C54.3349 383.699 54.2549 383.315 54.2549 382.856C54.2549 382.28 54.3936 381.805 54.6709 381.432C54.9483 381.059 55.3323 380.771 55.8229 380.568C56.3243 380.355 56.9163 380.211 57.5989 380.136C58.2816 380.051 59.0229 380.008 59.8229 380.008V379.048C59.8229 378.739 59.7696 378.472 59.6629 378.248C59.5563 378.024 59.3643 377.853 59.0869 377.736C58.8203 377.608 58.4363 377.544 57.9349 377.544C57.4549 377.544 57.0709 377.608 56.7829 377.736C56.5056 377.853 56.3083 378.008 56.1909 378.2C56.0843 378.392 56.0309 378.605 56.0309 378.84V379.08H54.6709C54.6603 379.027 54.6549 378.973 54.6549 378.92C54.6549 378.867 54.6549 378.803 54.6549 378.728C54.6549 378.216 54.7936 377.789 55.0709 377.448C55.3589 377.096 55.7589 376.835 56.2709 376.664C56.7829 376.483 57.3696 376.392 58.0309 376.392C58.7349 376.392 59.3216 376.493 59.7909 376.696C60.2709 376.899 60.6283 377.187 60.8629 377.56C61.1083 377.933 61.2309 378.381 61.2309 378.904V383.464C61.2309 383.667 61.2789 383.811 61.3749 383.896C61.4709 383.971 61.5883 384.008 61.7269 384.008H62.3509V384.936C62.2016 385 62.0363 385.053 61.8549 385.096C61.6736 385.149 61.4656 385.176 61.2309 385.176C60.9536 385.176 60.7243 385.117 60.5429 385C60.3616 384.893 60.2229 384.744 60.1269 384.552C60.0309 384.349 59.9669 384.125 59.9349 383.88H59.8229C59.6309 384.147 59.3856 384.381 59.0869 384.584C58.7989 384.776 58.4736 384.925 58.1109 385.032C57.7483 385.139 57.3536 385.192 56.9269 385.192ZM57.2789 384.008C57.6203 384.008 57.9403 383.955 58.2389 383.848C58.5483 383.741 58.8203 383.592 59.0549 383.4C59.2896 383.197 59.4763 382.957 59.6149 382.68C59.7536 382.403 59.8229 382.099 59.8229 381.768V381.064C58.9589 381.064 58.2229 381.112 57.6149 381.208C57.0069 381.304 56.5376 381.475 56.2069 381.72C55.8869 381.965 55.7269 382.312 55.7269 382.76C55.7269 383.048 55.7909 383.283 55.9189 383.464C56.0469 383.645 56.2283 383.784 56.4629 383.88C56.6976 383.965 56.9696 384.008 57.2789 384.008ZM67.5337 385.192C66.9684 385.192 66.4617 385.08 66.0137 384.856C65.5657 384.621 65.1977 384.269 64.9097 383.8H64.7977L64.6537 385H63.5337V373.432H64.9417V377.64H65.0377C65.2297 377.341 65.4537 377.101 65.7097 376.92C65.9657 376.739 66.2537 376.605 66.5737 376.52C66.8937 376.435 67.235 376.392 67.5977 376.392C68.2484 376.392 68.819 376.547 69.3097 376.856C69.8004 377.165 70.179 377.64 70.4457 378.28C70.723 378.92 70.8617 379.736 70.8617 380.728C70.8617 381.773 70.7284 382.627 70.4617 383.288C70.195 383.939 69.8164 384.419 69.3257 384.728C68.835 385.037 68.2377 385.192 67.5337 385.192ZM67.1977 383.96C67.6777 383.96 68.0777 383.864 68.3977 383.672C68.7284 383.48 68.979 383.165 69.1497 382.728C69.3204 382.28 69.4057 381.693 69.4057 380.968V380.632C69.4057 379.928 69.3257 379.357 69.1657 378.92C69.0057 378.472 68.7604 378.147 68.4297 377.944C68.099 377.731 67.6724 377.624 67.1497 377.624C66.851 377.624 66.5684 377.672 66.3017 377.768C66.035 377.864 65.795 378.029 65.5817 378.264C65.379 378.499 65.219 378.813 65.1017 379.208C64.995 379.603 64.9417 380.088 64.9417 380.664V380.92C64.9417 381.581 65.0164 382.136 65.1657 382.584C65.3257 383.032 65.571 383.373 65.9017 383.608C66.243 383.843 66.675 383.96 67.1977 383.96ZM75.9718 385.192C75.1398 385.192 74.4358 385.037 73.8598 384.728C73.2945 384.408 72.8625 383.923 72.5638 383.272C72.2758 382.621 72.1318 381.795 72.1318 380.792C72.1318 379.779 72.2758 378.952 72.5638 378.312C72.8625 377.661 73.2998 377.181 73.8758 376.872C74.4518 376.552 75.1718 376.392 76.0358 376.392C76.8251 376.392 77.4865 376.547 78.0198 376.856C78.5531 377.155 78.9531 377.608 79.2198 378.216C79.4971 378.813 79.6358 379.565 79.6358 380.472V381.144H73.5878C73.6091 381.816 73.7051 382.371 73.8758 382.808C74.0571 383.235 74.3238 383.549 74.6758 383.752C75.0278 383.944 75.4705 384.04 76.0038 384.04C76.3665 384.04 76.6811 383.997 76.9478 383.912C77.2251 383.816 77.4545 383.683 77.6358 383.512C77.8278 383.341 77.9718 383.139 78.0678 382.904C78.1638 382.669 78.2171 382.413 78.2278 382.136H79.6038C79.5931 382.584 79.5078 383 79.3478 383.384C79.1878 383.757 78.9531 384.077 78.6438 384.344C78.3345 384.611 77.9558 384.819 77.5078 384.968C77.0598 385.117 76.5478 385.192 75.9718 385.192ZM73.6198 380.088H78.1798C78.1798 379.619 78.1265 379.224 78.0198 378.904C77.9131 378.584 77.7585 378.323 77.5558 378.12C77.3638 377.917 77.1345 377.773 76.8678 377.688C76.6118 377.592 76.3185 377.544 75.9878 377.544C75.4971 377.544 75.0811 377.635 74.7398 377.816C74.3985 377.997 74.1371 378.275 73.9558 378.648C73.7745 379.021 73.6625 379.501 73.6198 380.088ZM81.3774 385V373.432H82.7854V385H81.3774Z" fill="black"/>
</g>
<g clip-path="url(#clip6_87_14)" filter="url(#filter6_d_87_14)">
<rect x="13" y="420" width="103" height="54" rx="8" fill="#222222"/>
<path d="M46.5088 452V441.024H48.0288V450.672H53.4848V452H46.5088ZM56.9269 452.192C56.6176 452.192 56.3083 452.155 55.9989 452.08C55.6896 452.005 55.4016 451.883 55.1349 451.712C54.8683 451.541 54.6549 451.307 54.4949 451.008C54.3349 450.699 54.2549 450.315 54.2549 449.856C54.2549 449.28 54.3936 448.805 54.6709 448.432C54.9483 448.059 55.3323 447.771 55.8229 447.568C56.3243 447.355 56.9163 447.211 57.5989 447.136C58.2816 447.051 59.0229 447.008 59.8229 447.008V446.048C59.8229 445.739 59.7696 445.472 59.6629 445.248C59.5563 445.024 59.3643 444.853 59.0869 444.736C58.8203 444.608 58.4363 444.544 57.9349 444.544C57.4549 444.544 57.0709 444.608 56.7829 444.736C56.5056 444.853 56.3083 445.008 56.1909 445.2C56.0843 445.392 56.0309 445.605 56.0309 445.84V446.08H54.6709C54.6603 446.027 54.6549 445.973 54.6549 445.92C54.6549 445.867 54.6549 445.803 54.6549 445.728C54.6549 445.216 54.7936 444.789 55.0709 444.448C55.3589 444.096 55.7589 443.835 56.2709 443.664C56.7829 443.483 57.3696 443.392 58.0309 443.392C58.7349 443.392 59.3216 443.493 59.7909 443.696C60.2709 443.899 60.6283 444.187 60.8629 444.56C61.1083 444.933 61.2309 445.381 61.2309 445.904V450.464C61.2309 450.667 61.2789 450.811 61.3749 450.896C61.4709 450.971 61.5883 451.008 61.7269 451.008H62.3509V451.936C62.2016 452 62.0363 452.053 61.8549 452.096C61.6736 452.149 61.4656 452.176 61.2309 452.176C60.9536 452.176 60.7243 452.117 60.5429 452C60.3616 451.893 60.2229 451.744 60.1269 451.552C60.0309 451.349 59.9669 451.125 59.9349 450.88H59.8229C59.6309 451.147 59.3856 451.381 59.0869 451.584C58.7989 451.776 58.4736 451.925 58.1109 452.032C57.7483 452.139 57.3536 452.192 56.9269 452.192ZM57.2789 451.008C57.6203 451.008 57.9403 450.955 58.2389 450.848C58.5483 450.741 58.8203 450.592 59.0549 450.4C59.2896 450.197 59.4763 449.957 59.6149 449.68C59.7536 449.403 59.8229 449.099 59.8229 448.768V448.064C58.9589 448.064 58.2229 448.112 57.6149 448.208C57.0069 448.304 56.5376 448.475 56.2069 448.72C55.8869 448.965 55.7269 449.312 55.7269 449.76C55.7269 450.048 55.7909 450.283 55.9189 450.464C56.0469 450.645 56.2283 450.784 56.4629 450.88C56.6976 450.965 56.9696 451.008 57.2789 451.008ZM67.5337 452.192C66.9684 452.192 66.4617 452.08 66.0137 451.856C65.5657 451.621 65.1977 451.269 64.9097 450.8H64.7977L64.6537 452H63.5337V440.432H64.9417V444.64H65.0377C65.2297 444.341 65.4537 444.101 65.7097 443.92C65.9657 443.739 66.2537 443.605 66.5737 443.52C66.8937 443.435 67.235 443.392 67.5977 443.392C68.2484 443.392 68.819 443.547 69.3097 443.856C69.8004 444.165 70.179 444.64 70.4457 445.28C70.723 445.92 70.8617 446.736 70.8617 447.728C70.8617 448.773 70.7284 449.627 70.4617 450.288C70.195 450.939 69.8164 451.419 69.3257 451.728C68.835 452.037 68.2377 452.192 67.5337 452.192ZM67.1977 450.96C67.6777 450.96 68.0777 450.864 68.3977 450.672C68.7284 450.48 68.979 450.165 69.1497 449.728C69.3204 449.28 69.4057 448.693 69.4057 447.968V447.632C69.4057 446.928 69.3257 446.357 69.1657 445.92C69.0057 445.472 68.7604 445.147 68.4297 444.944C68.099 444.731 67.6724 444.624 67.1497 444.624C66.851 444.624 66.5684 444.672 66.3017 444.768C66.035 444.864 65.795 445.029 65.5817 445.264C65.379 445.499 65.219 445.813 65.1017 446.208C64.995 446.603 64.9417 447.088 64.9417 447.664V447.92C64.9417 448.581 65.0164 449.136 65.1657 449.584C65.3257 450.032 65.571 450.373 65.9017 450.608C66.243 450.843 66.675 450.96 67.1977 450.96ZM75.9718 452.192C75.1398 452.192 74.4358 452.037 73.8598 451.728C73.2945 451.408 72.8625 450.923 72.5638 450.272C72.2758 449.621 72.1318 448.795 72.1318 447.792C72.1318 446.779 72.2758 445.952 72.5638 445.312C72.8625 444.661 73.2998 444.181 73.8758 443.872C74.4518 443.552 75.1718 443.392 76.0358 443.392C76.8251 443.392 77.4865 443.547 78.0198 443.856C78.5531 444.155 78.9531 444.608 79.2198 445.216C79.4971 445.813 79.6358 446.565 79.6358 447.472V448.144H73.5878C73.6091 448.816 73.7051 449.371 73.8758 449.808C74.0571 450.235 74.3238 450.549 74.6758 450.752C75.0278 450.944 75.4705 451.04 76.0038 451.04C76.3665 451.04 76.6811 450.997 76.9478 450.912C77.2251 450.816 77.4545 450.683 77.6358 450.512C77.8278 450.341 77.9718 450.139 78.0678 449.904C78.1638 449.669 78.2171 449.413 78.2278 449.136H79.6038C79.5931 449.584 79.5078 450 79.3478 450.384C79.1878 450.757 78.9531 451.077 78.6438 451.344C78.3345 451.611 77.9558 451.819 77.5078 451.968C77.0598 452.117 76.5478 452.192 75.9718 452.192ZM73.6198 447.088H78.1798C78.1798 446.619 78.1265 446.224 78.0198 445.904C77.9131 445.584 77.7585 445.323 77.5558 445.12C77.3638 444.917 77.1345 444.773 76.8678 444.688C76.6118 444.592 76.3185 444.544 75.9878 444.544C75.4971 444.544 75.0811 444.635 74.7398 444.816C74.3985 444.997 74.1371 445.275 73.9558 445.648C73.7745 446.021 73.6625 446.501 73.6198 447.088ZM81.3774 452V440.432H82.7854V452H81.3774Z" fill="#5C5C5D"/>
</g>
<rect x="0.5" y="0.5" width="128" height="490" rx="4.5" stroke="#41CD52" stroke-dasharray="10 5"/>
<defs>
<filter id="filter0_d_87_14" x="9" y="14" width="111" height="62" filterUnits="userSpaceOnUse" color-interpolation-filters="sRGB">
<feFlood flood-opacity="0" result="BackgroundImageFix"/>
<feColorMatrix in="SourceAlpha" type="matrix" values="0 0 0 0 0 0 0 0 0 0 0 0 0 0 0 0 0 0 127 0" result="hardAlpha"/>
<feOffset/>
<feGaussianBlur stdDeviation="2"/>
<feComposite in2="hardAlpha" operator="out"/>
<feColorMatrix type="matrix" values="0 0 0 0 0 0 0 0 0 0 0 0 0 0 0 0 0 0 0.25 0"/>
<feBlend mode="normal" in2="BackgroundImageFix" result="effect1_dropShadow_87_14"/>
<feBlend mode="normal" in="SourceGraphic" in2="effect1_dropShadow_87_14" result="shape"/>
</filter>
<filter id="filter1_d_87_14" x="9" y="81" width="111" height="62" filterUnits="userSpaceOnUse" color-interpolation-filters="sRGB">
<feFlood flood-opacity="0" result="BackgroundImageFix"/>
<feColorMatrix in="SourceAlpha" type="matrix" values="0 0 0 0 0 0 0 0 0 0 0 0 0 0 0 0 0 0 127 0" result="hardAlpha"/>
<feOffset/>
<feGaussianBlur stdDeviation="2"/>
<feComposite in2="hardAlpha" operator="out"/>
<feColorMatrix type="matrix" values="0 0 0 0 0 0 0 0 0 0 0 0 0 0 0 0 0 0 0.25 0"/>
<feBlend mode="normal" in2="BackgroundImageFix" result="effect1_dropShadow_87_14"/>
<feBlend mode="normal" in="SourceGraphic" in2="effect1_dropShadow_87_14" result="shape"/>
</filter>
<filter id="filter2_d_87_14" x="9" y="148" width="111" height="62" filterUnits="userSpaceOnUse" color-interpolation-filters="sRGB">
<feFlood flood-opacity="0" result="BackgroundImageFix"/>
<feColorMatrix in="SourceAlpha" type="matrix" values="0 0 0 0 0 0 0 0 0 0 0 0 0 0 0 0 0 0 127 0" result="hardAlpha"/>
<feOffset/>
<feGaussianBlur stdDeviation="2"/>
<feComposite in2="hardAlpha" operator="out"/>
<feColorMatrix type="matrix" values="0 0 0 0 0 0 0 0 0 0 0 0 0 0 0 0 0 0 0.25 0"/>
<feBlend mode="normal" in2="BackgroundImageFix" result="effect1_dropShadow_87_14"/>
<feBlend mode="normal" in="SourceGraphic" in2="effect1_dropShadow_87_14" result="shape"/>
</filter>
<filter id="filter3_d_87_14" x="9" y="215" width="111" height="62" filterUnits="userSpaceOnUse" color-interpolation-filters="sRGB">
<feFlood flood-opacity="0" result="BackgroundImageFix"/>
<feColorMatrix in="SourceAlpha" type="matrix" values="0 0 0 0 0 0 0 0 0 0 0 0 0 0 0 0 0 0 127 0" result="hardAlpha"/>
<feOffset/>
<feGaussianBlur stdDeviation="2"/>
<feComposite in2="hardAlpha" operator="out"/>
<feColorMatrix type="matrix" values="0 0 0 0 0 0 0 0 0 0 0 0 0 0 0 0 0 0 0.25 0"/>
<feBlend mode="normal" in2="BackgroundImageFix" result="effect1_dropShadow_87_14"/>
<feBlend mode="normal" in="SourceGraphic" in2="effect1_dropShadow_87_14" result="shape"/>
</filter>
<filter id="filter4_d_87_14" x="9" y="282" width="111" height="62" filterUnits="userSpaceOnUse" color-interpolation-filters="sRGB">
<feFlood flood-opacity="0" result="BackgroundImageFix"/>
<feColorMatrix in="SourceAlpha" type="matrix" values="0 0 0 0 0 0 0 0 0 0 0 0 0 0 0 0 0 0 127 0" result="hardAlpha"/>
<feOffset/>
<feGaussianBlur stdDeviation="2"/>
<feComposite in2="hardAlpha" operator="out"/>
<feColorMatrix type="matrix" values="0 0 0 0 0 0 0 0 0 0 0 0 0 0 0 0 0 0 0.25 0"/>
<feBlend mode="normal" in2="BackgroundImageFix" result="effect1_dropShadow_87_14"/>
<feBlend mode="normal" in="SourceGraphic" in2="effect1_dropShadow_87_14" result="shape"/>
</filter>
<filter id="filter5_d_87_14" x="9" y="349" width="111" height="62" filterUnits="userSpaceOnUse" color-interpolation-filters="sRGB">
<feFlood flood-opacity="0" result="BackgroundImageFix"/>
<feColorMatrix in="SourceAlpha" type="matrix" values="0 0 0 0 0 0 0 0 0 0 0 0 0 0 0 0 0 0 127 0" result="hardAlpha"/>
<feOffset/>
<feGaussianBlur stdDeviation="2"/>
<feComposite in2="hardAlpha" operator="out"/>
<feColorMatrix type="matrix" values="0 0 0 0 0 0 0 0 0 0 0 0 0 0 0 0 0 0 0.25 0"/>
<feBlend mode="normal" in2="BackgroundImageFix" result="effect1_dropShadow_87_14"/>
<feBlend mode="normal" in="SourceGraphic" in2="effect1_dropShadow_87_14" result="shape"/>
</filter>
<filter id="filter6_d_87_14" x="9" y="416" width="111" height="62" filterUnits="userSpaceOnUse" color-interpolation-filters="sRGB">
<feFlood flood-opacity="0" result="BackgroundImageFix"/>
<feColorMatrix in="SourceAlpha" type="matrix" values="0 0 0 0 0 0 0 0 0 0 0 0 0 0 0 0 0 0 127 0" result="hardAlpha"/>
<feOffset/>
<feGaussianBlur stdDeviation="2"/>
<feComposite in2="hardAlpha" operator="out"/>
<feColorMatrix type="matrix" values="0 0 0 0 0 0 0 0 0 0 0 0 0 0 0 0 0 0 0.25 0"/>
<feBlend mode="normal" in2="BackgroundImageFix" result="effect1_dropShadow_87_14"/>
<feBlend mode="normal" in="SourceGraphic" in2="effect1_dropShadow_87_14" result="shape"/>
</filter>
<clipPath id="clip0_87_14">
<rect width="103" height="54" fill="white" transform="translate(13 18)"/>
</clipPath>
<clipPath id="clip1_87_14">
<rect width="103" height="54" fill="white" transform="translate(13 85)"/>
</clipPath>
<clipPath id="clip2_87_14">
<rect width="103" height="54" fill="white" transform="translate(13 152)"/>
</clipPath>
<clipPath id="clip3_87_14">
<rect width="103" height="54" fill="white" transform="translate(13 219)"/>
</clipPath>
<clipPath id="clip4_87_14">
<rect width="103" height="54" fill="white" transform="translate(13 286)"/>
</clipPath>
<clipPath id="clip5_87_14">
<rect width="103" height="54" fill="white" transform="translate(13 353)"/>
</clipPath>
<clipPath id="clip6_87_14">
<rect width="103" height="54" fill="white" transform="translate(13 420)"/>
</clipPath>
</defs>
</svg>
