<svg width="103" height="54" viewBox="0 0 103 54" fill="none" xmlns="http://www.w3.org/2000/svg">
<path d="M0 8C0 3.58172 3.58172 0 8 0H95C99.4183 0 103 3.58172 103 8V46C103 50.4183 99.4183 54 95 54H8C3.58172 54 0 50.4183 0 46V8Z" fill="white"/>
<path d="M33.5088 32V21.024H35.0288V30.672H40.4848V32H33.5088Z" fill="black"/>
<path d="M43.9269 32.192C43.6176 32.192 43.3083 32.1547 42.9989 32.08C42.6896 32.0053 42.4016 31.8827 42.1349 31.712C41.8683 31.5413 41.6549 31.3067 41.4949 31.008C41.3349 30.6987 41.2549 30.3147 41.2549 29.856C41.2549 29.28 41.3936 28.8053 41.6709 28.432C41.9483 28.0587 42.3323 27.7707 42.8229 27.568C43.3243 27.3547 43.9163 27.2107 44.5989 27.136C45.2816 27.0507 46.0229 27.008 46.8229 27.008V26.048C46.8229 25.7387 46.7696 25.472 46.6629 25.248C46.5563 25.024 46.3643 24.8533 46.0869 24.736C45.8203 24.608 45.4363 24.544 44.9349 24.544C44.4549 24.544 44.0709 24.608 43.7829 24.736C43.5056 24.8533 43.3083 25.008 43.1909 25.2C43.0843 25.392 43.0309 25.6053 43.0309 25.84V26.08H41.6709C41.6603 26.0267 41.6549 25.9733 41.6549 25.92C41.6549 25.8667 41.6549 25.8027 41.6549 25.728C41.6549 25.216 41.7936 24.7893 42.0709 24.448C42.3589 24.096 42.7589 23.8347 43.2709 23.664C43.7829 23.4827 44.3696 23.392 45.0309 23.392C45.7349 23.392 46.3216 23.4933 46.7909 23.696C47.2709 23.8987 47.6283 24.1867 47.8629 24.56C48.1083 24.9333 48.2309 25.3813 48.2309 25.904V30.464C48.2309 30.6667 48.2789 30.8107 48.3749 30.896C48.4709 30.9707 48.5883 31.008 48.7269 31.008H49.3509V31.936C49.2016 32 49.0363 32.0533 48.8549 32.096C48.6736 32.1493 48.4656 32.176 48.2309 32.176C47.9536 32.176 47.7243 32.1173 47.5429 32C47.3616 31.8933 47.2229 31.744 47.1269 31.552C47.0309 31.3493 46.9669 31.1253 46.9349 30.88H46.8229C46.6309 31.1467 46.3856 31.3813 46.0869 31.584C45.7989 31.776 45.4736 31.9253 45.1109 32.032C44.7483 32.1387 44.3536 32.192 43.9269 32.192ZM44.2789 31.008C44.6203 31.008 44.9403 30.9547 45.2389 30.848C45.5483 30.7413 45.8203 30.592 46.0549 30.4C46.2896 30.1973 46.4763 29.9573 46.6149 29.68C46.7536 29.4027 46.8229 29.0987 46.8229 28.768V28.064C45.9589 28.064 45.2229 28.112 44.6149 28.208C44.0069 28.304 43.5376 28.4747 43.2069 28.72C42.8869 28.9653 42.7269 29.312 42.7269 29.76C42.7269 30.048 42.7909 30.2827 42.9189 30.464C43.0469 30.6453 43.2283 30.784 43.4629 30.88C43.6976 30.9653 43.9696 31.008 44.2789 31.008Z" fill="black"/>
<path d="M54.5337 32.192C53.9684 32.192 53.4617 32.08 53.0137 31.856C52.5657 31.6213 52.1977 31.2693 51.9097 30.8H51.7977L51.6537 32H50.5337V20.432H51.9417V24.64H52.0377C52.2297 24.3413 52.4537 24.1013 52.7097 23.92C52.9657 23.7387 53.2537 23.6053 53.5737 23.52C53.8937 23.4347 54.235 23.392 54.5977 23.392C55.2484 23.392 55.819 23.5467 56.3097 23.856C56.8004 24.1653 57.179 24.64 57.4457 25.28C57.723 25.92 57.8617 26.736 57.8617 27.728C57.8617 28.7733 57.7284 29.6267 57.4617 30.288C57.195 30.9387 56.8164 31.4187 56.3257 31.728C55.835 32.0373 55.2377 32.192 54.5337 32.192ZM54.1977 30.96C54.6777 30.96 55.0777 30.864 55.3977 30.672C55.7284 30.48 55.979 30.1653 56.1497 29.728C56.3204 29.28 56.4057 28.6933 56.4057 27.968V27.632C56.4057 26.928 56.3257 26.3573 56.1657 25.92C56.0057 25.472 55.7604 25.1467 55.4297 24.944C55.099 24.7307 54.6724 24.624 54.1497 24.624C53.851 24.624 53.5684 24.672 53.3017 24.768C53.035 24.864 52.795 25.0293 52.5817 25.264C52.379 25.4987 52.219 25.8133 52.1017 26.208C51.995 26.6027 51.9417 27.088 51.9417 27.664V27.92C51.9417 28.5813 52.0164 29.136 52.1657 29.584C52.3257 30.032 52.571 30.3733 52.9017 30.608C53.243 30.8427 53.675 30.96 54.1977 30.96Z" fill="black"/>
<path d="M62.9718 32.192C62.1398 32.192 61.4358 32.0373 60.8598 31.728C60.2945 31.408 59.8625 30.9227 59.5638 30.272C59.2758 29.6213 59.1318 28.7947 59.1318 27.792C59.1318 26.7787 59.2758 25.952 59.5638 25.312C59.8625 24.6613 60.2998 24.1813 60.8758 23.872C61.4518 23.552 62.1718 23.392 63.0358 23.392C63.8251 23.392 64.4865 23.5467 65.0198 23.856C65.5531 24.1547 65.9531 24.608 66.2198 25.216C66.4971 25.8133 66.6358 26.5653 66.6358 27.472V28.144H60.5878C60.6091 28.816 60.7051 29.3707 60.8758 29.808C61.0571 30.2347 61.3238 30.5493 61.6758 30.752C62.0278 30.944 62.4705 31.04 63.0038 31.04C63.3665 31.04 63.6811 30.9973 63.9478 30.912C64.2251 30.816 64.4545 30.6827 64.6358 30.512C64.8278 30.3413 64.9718 30.1387 65.0678 29.904C65.1638 29.6693 65.2171 29.4133 65.2278 29.136H66.6038C66.5931 29.584 66.5078 30 66.3478 30.384C66.1878 30.7573 65.9531 31.0773 65.6438 31.344C65.3345 31.6107 64.9558 31.8187 64.5078 31.968C64.0598 32.1173 63.5478 32.192 62.9718 32.192ZM60.6198 27.088H65.1798C65.1798 26.6187 65.1265 26.224 65.0198 25.904C64.9131 25.584 64.7585 25.3227 64.5558 25.12C64.3638 24.9173 64.1345 24.7733 63.8678 24.688C63.6118 24.592 63.3185 24.544 62.9878 24.544C62.4971 24.544 62.0811 24.6347 61.7398 24.816C61.3985 24.9973 61.1371 25.2747 60.9558 25.648C60.7745 26.0213 60.6625 26.5013 60.6198 27.088Z" fill="black"/>
<path d="M68.3774 32V20.432H69.7854V32H68.3774Z" fill="black"/>
</svg>
